<svg xmlns="http://www.w3.org/2000/svg" width="24" height="24" viewBox="0 0 24 24">
  <path d="M15.93 11.9c-.54 0-1.04.29-1.04.87 0 .47.3.77.9.77.54 0 .96-.36.96-.87.05-.51-.31-.77-.82-.77m-2.76 2.18c-.39 0-.71-.15-.71-.54s.24-.62 1.08-.62c.44 0 .74.1.74.1.01.83-.64 1.06-1.11 1.06m.45-6.47c-1.97 0-3.8.64-3.8 2.9 0 1.55.9 2.4 2.23 2.4 1.04 0 1.83-.36 2.24-.93h.06s-.04.36.06.63c.07.19.23.26.43.26.3 0 1.05-.11 1.05-.11V8.57s-1.77-.96-2.27-.96m-8.12 7.48c-.46-.26-1.01-.47-1.01-.96 0-.48.49-.68 1.13-.68.3 0 .57.04 1.1.17.1.02.19.04.28.04.38 0 .47-.26.47-.45 0-.54-.85-.66-.85-.66-1.59-.24-2.37.62-2.37 1.62 0 .85.53 1.31 1.34 1.65.52.24 1.19.49 1.19 1.04 0 .52-.42.75-1.19.75-.3 0-.71-.07-1.17-.19-.08-.02-.18-.05-.27-.05-.39 0-.47.29-.47.46 0 .3.18.51.55.64.51.18 1 .28 1.41.28 1.23 0 2.35-.54 2.35-1.88.03-1.5-1.55-1.5-2.49-1.78m13 .38c-.31 0-.56-.14-.75-.34-.19.2-.45.34-.74.34-.67 0-1.17-.55-1.17-1.38 0-.84.5-1.4 1.17-1.4.3 0 .56.14.74.34.19-.2.44-.34.75-.34.67 0 1.17.56 1.17 1.4 0 .83-.5 1.38-1.17 1.38m-2.78-3.05c0 .32.21.48.58.48.71 0 1.76-.04 1.76-.04v1.04s-.99.09-1.63.22c-1.56.33-1.73 1.13-1.73 1.83h-.04c-.44-.62-1.13-.89-1.96-.89-1.3 0-2.27.88-2.27 2.24 0 1.32.93 2.23 2.21 2.23.94 0 1.67-.42 2.07-1.07h.06s-.05.22-.05.41c0 .23.11.36.37.36.21 0 1.11-.13 1.11-.13v-6.85c0-1.42-1.16-1.83-2.42-1.83-1.67 0-2.35.74-2.35 1.17 0 .3.25.51.47.51.22 0 .37-.1.52-.25.32-.32.6-.43 1.32-.43.89 0 .98.6.98 1zm-4.15.79h.93v-.71c0-.35.28-.63.63-.63h.14v-.93h-.13c-.35 0-.63-.28-.63-.63v-.7h-.94v.7c0 .35-.28.63-.63.63h-.13v.93h.13c.36 0 .63.28.63.63v.71zm-6.64 0h.93v-.71c0-.35.28-.63.63-.63h.13v-.93h-.13c-.35 0-.63-.28-.63-.63v-.7h-.93v.7c0 .35-.28.63-.63.63h-.14v.93h.14c.35 0 .63.28.63.63v.71z" fill="#FF9900"/>
</svg> 