<svg xmlns="http://www.w3.org/2000/svg" width="24" height="24" viewBox="0 0 24 24">
  <path fill="#5865F2" d="M19.27,5.33C17.94,4.71,16.5,4.26,15.03,4a0.07,0.07,0,0,0-.07,0.03,12.4,12.4,0,0,0-.94,1.91,11.37,11.37,0,0,0-3.4,0,11.34,11.34,0,0,0-.93-1.91,0.07,0.07,0,0,0-.07-0.03c-1.47.26-2.92,0.71-4.24,1.33C4,8.15,3.16,12.45,3.57,16.67a0.1,0.1,0,0,0,.04.07,13.72,13.72,0,0,0,4.08,2.05,0.07,0.07,0,0,0,.08-0.03,9.53,9.53,0,0,0,.81-1.32,0.06,0.06,0,0,0-.03-0.09,8.9,8.9,0,0,1-1.27-.6,0.06,0.06,0,0,1,0-0.11c0.08-.06.17-0.13,0.25-0.19a0.06,0.06,0,0,1,.07,0,12.77,12.77,0,0,0,10.82,0,0.06,0.06,0,0,1,.07,0c0.08,0.07.17,0.13,0.25,0.2a0.06,0.06,0,0,1,0,0.11,8.29,8.29,0,0,1-1.28.59,0.06,0.06,0,0,0-.03.09,10.82,10.82,0,0,0,.82,1.32,0.07,0.07,0,0,0,.08,0.03,13.65,13.65,0,0,0,4.09-2.05,0.07,0.07,0,0,0,.04-0.07C20.68,11.52,19.35,7.47,19.27,5.33ZM8.94,14.41c-0.8,0-1.46-0.73-1.46-1.63s0.64-1.64,1.46-1.64,1.48.74,1.47,1.64S9.75,14.41,8.94,14.41Zm5.42,0c-0.8,0-1.46-0.73-1.46-1.63s0.64-1.64,1.46-1.64,1.48.74,1.47,1.64S15.17,14.41,14.37,14.41Z"/>
</svg> 