<svg xmlns="http://www.w3.org/2000/svg" viewBox="0 0 24 24" width="24" height="24">
  <path fill="#4285F4" d="M24,5.5v13.2c0,0.7-0.6,1.3-1.3,1.3h-1.5V8.3l-7.2,4.9L7,8.3v11.7H5.3c-0.7,0-1.3-0.6-1.3-1.3V5.5 c0-0.7,0.6-1.3,1.3-1.3h0.9L14,9l7.8-4.8h0.9C23.4,4.2,24,4.7,24,5.5z"/>
  <path fill="#EA4335" d="M7,8.3l-6-4.1C1.4,3.8,2,3.4,2.6,3.4h2.7L7,8.3z"/>
  <path fill="#FBBC04" d="M7,8.3V19l-4.9,3.2c-0.3,0.2-0.8,0-0.8-0.5V5.7L7,8.3z"/>
  <path fill="#34A853" d="M17,8.3l6-4.1C22.6,3.8,22,3.4,21.4,3.4h-2.7L17,8.3z"/>
  <path fill="#C5221F" d="M17,8.3V19l4.9,3.2c0.3,0.2,0.8,0,0.8-0.5V5.7L17,8.3z"/>
</svg> 