<svg xmlns="http://www.w3.org/2000/svg" viewBox="0 0 24 24" width="24" height="24">
  <circle cx="12" cy="12" r="12" fill="#26A5E4"/>
  <path fill="#FFFFFF" d="M5.38,11.55c2.88-1.56,4.8-2.59,5.76-3.08c2.75-1.42,3.32-1.66,3.69-1.67 c0.08,0,0.27,0.02,0.39,0.12c0.1,0.08,0.13,0.19,0.14,0.27c0.01,0.08,0.03,0.24,0.02,0.37c-0.14,1.43-0.75,4.9-1.05,6.5 c-0.13,0.68-0.38,0.91-0.63,0.93c-0.53,0.04-0.94-0.35-1.46-0.69c-0.81-0.52-1.27-0.85-2.05-1.36c-0.91-0.59-0.32-0.91,0.2-1.44 c0.14-0.14,2.47-2.24,2.52-2.43c0-0.02,0.01-0.12-0.04-0.17c-0.06-0.05-0.14-0.03-0.2-0.02c-0.09,0.02-1.46,0.92-4.11,2.72 c-0.39,0.27-0.74,0.4-1.05,0.39c-0.35-0.01-1.01-0.19-1.51-0.35c-0.61-0.19-1.09-0.29-1.05-0.61C4.3,11.83,4.69,11.69,5.38,11.55z"/>
</svg> 