<svg xmlns="http://www.w3.org/2000/svg" width="24" height="24" viewBox="0 0 24 24">
  <defs>
    <linearGradient id="tinder-gradient" x1="0%" y1="0%" x2="100%" y2="100%">
      <stop offset="0%" stop-color="#FF7854"/>
      <stop offset="100%" stop-color="#FD267D"/>
    </linearGradient>
  </defs>
  <path fill="url(#tinder-gradient)" d="M12.004 2c-5.334 0-9.836 4.516-10.004 9.852 0 5.502 3.162 8.184 5.004 9.355v0.109c0.783-0.863 2.133-1.279 3.556-1.318 1.842-0.04 3.142 0.516 4.003 1.195v-0.040c1.814-0.951 5.441-3.186 5.437-9.191 0-5.29-3.48-9.962-8-9.962zM15.999 10.941c-0.175 0.406-0.575 0.695-1.262 0.834 0.225 0.498 0.102 0.936-0.026 1.225-0.121 0.271-0.313 0.536-0.548 0.77-0.238 0.238-0.478 0.416-0.722 0.574-0.241 0.155-0.478 0.255-0.722 0.327-0.397 0.118-0.811 0.156-1.276 0.156-0.258 0-0.517-0.023-0.782-0.07s-0.54-0.121-0.813-0.217c-0.274-0.096-0.54-0.222-0.811-0.396-0.265-0.176-0.517-0.397-0.743-0.659-0.226-0.262-0.448-0.553-0.626-0.909-0.121-0.238-0.22-0.492-0.304-0.764-0.084-0.272-0.148-0.553-0.191-0.853-0.044-0.3-0.068-0.583-0.068-0.866 0-0.3 0.024-0.602 0.068-0.902 0.043-0.3 0.106-0.602 0.191-0.893 0.084-0.293 0.183-0.555 0.304-0.816 0.178-0.374 0.399-0.688 0.626-0.974 0.227-0.282 0.478-0.524 0.743-0.711 0.271-0.187 0.537-0.325 0.811-0.438 0.272-0.113 0.547-0.199 0.813-0.257 0.265-0.059 0.524-0.089 0.782-0.089 0.465 0 0.879 0.051 1.276 0.174 0.244 0.072 0.481 0.185 0.722 0.34 0.244 0.155 0.484 0.35 0.722 0.588 0.235 0.235 0.427 0.499 0.548 0.77 0.128 0.289 0.251 0.727 0.026 1.225 0.688 0.138 1.087 0.427 1.262 0.834 0.175 0.427 0.112 0.889-0.15 1.279-0.257 0.379-0.73 0.664-1.413 0.703-0.693 0.031-1.407-0.234-1.975-0.783-0.087-0.084-0.173-0.177-0.253-0.27-0.227-0.264-0.448-0.556-0.626-0.826 0.178 0.253 0.399 0.524 0.626 0.777 0.08 0.084 0.166 0.167 0.253 0.253 0.568 0.529 1.282 0.78 1.975 0.748 0.683-0.039 1.156-0.323 1.413-0.72 0.262-0.368 0.325-0.83 0.15-1.257zM10.027 14.317c0.204 0.009 0.417-0.016 0.608-0.078 0.19-0.062 0.371-0.15 0.541-0.265s0.308-0.256 0.417-0.396c0.111-0.14 0.204-0.28 0.262-0.435 0.046-0.117 0.064-0.243 0.053-0.36-0.011-0.117-0.057-0.243-0.136-0.358-0.079-0.115-0.182-0.22-0.334-0.312-0.149-0.092-0.314-0.167-0.494-0.226-0.334-0.107-0.667-0.16-1.001-0.16-0.226 0-0.456 0.031-0.678 0.093-0.223 0.062-0.445 0.155-0.661 0.28-0.214 0.125-0.411 0.292-0.598 0.479-0.183 0.187-0.337 0.404-0.454 0.656-0.078 0.171-0.154 0.354-0.207 0.545-0.055 0.193-0.101 0.391-0.13 0.592-0.028 0.201-0.054 0.405-0.054 0.611 0 0.214 0.025 0.428 0.054 0.63 0.034 0.196 0.08 0.392 0.135 0.582 0.053 0.19 0.13 0.368 0.207 0.533 0.131 0.257 0.271 0.479 0.454 0.667 0.187 0.187 0.389 0.351 0.603 0.474 0.215 0.125 0.438 0.218 0.661 0.28 0.223 0.062 0.453 0.093 0.679 0.093 0.334 0 0.667-0.041 1.001-0.148 0.18-0.058 0.345-0.135 0.494-0.226 0.149-0.092 0.251-0.198 0.33-0.312 0.079-0.115 0.125-0.228 0.135-0.348 0.011-0.117-0.007-0.234-0.053-0.351-0.058-0.155-0.149-0.295-0.26-0.435-0.11-0.14-0.248-0.265-0.417-0.377-0.168-0.112-0.346-0.202-0.541-0.264-0.193-0.062-0.406-0.088-0.608-0.087v0.099s-0.314-0.101-0.314-1.031c0-0.929 0.314-1.031 0.314-1.031l-0.004 0.087z"/>
</svg> 