<svg xmlns="http://www.w3.org/2000/svg" viewBox="0 0 24 24" width="24" height="24">
  <path fill="#25D366" d="M12,1.5C6.21,1.5,1.5,6.21,1.5,12c0,1.99,0.55,3.93,1.59,5.6L1.95,22.5l4.99-1.14C8.5,22.38,10.24,22.84,12,22.84c5.79,0,10.5-4.71,10.5-10.5S17.79,1.5,12,1.5 M17.25,16.5c-0.24,0.69-1.43,1.29-2.34,1.46c-0.62,0.11-1.44,0.19-4.19-0.89c-3.52-1.37-5.79-4.74-5.97-4.96 c-0.17-0.22-1.43-1.9-1.43-3.62c0-1.71,0.9-2.55,1.22-2.89c0.32-0.34,0.69-0.42,0.92-0.42c0.23,0,0.46,0,0.66,0.01 c0.21,0.01,0.5,0.02,0.76,0.58c0.31,0.68,0.98,2.38,1.07,2.56c0.09,0.18,0.14,0.39,0.03,0.63c-0.11,0.24-0.16,0.39-0.33,0.6 c-0.16,0.21-0.34,0.47-0.48,0.63c-0.17,0.19-0.34,0.4-0.14,0.75c0.19,0.35,0.86,1.51,1.85,2.45c1.27,1.21,2.34,1.59,2.67,1.76 c0.33,0.17,0.52,0.14,0.71-0.08c0.19-0.22,0.83-0.96,1.05-1.29c0.22-0.33,0.44-0.27,0.74-0.16c0.3,0.11,1.89,0.89,2.21,1.05 c0.32,0.16,0.54,0.24,0.62,0.37C17.49,15.23,17.49,15.81,17.25,16.5" />
</svg> 