<svg xmlns="http://www.w3.org/2000/svg" viewBox="0 0 900 600" width="800" height="533">
  <rect width="900" height="200" fill="#F93"/>
  <rect width="900" height="200" y="200" fill="#FFF"/>
  <rect width="900" height="200" y="400" fill="#128807"/>
  <circle cx="450" cy="300" r="60" fill="#008"/>
  <circle cx="450" cy="300" r="50" fill="#FFF"/>
  <circle cx="450" cy="300" r="12" fill="#008"/>
  <g id="wheel" fill="#008">
    <g id="spoke">
      <rect x="449" y="250" width="2" height="50"/>
      <rect x="445" y="263" width="10" height="2"/>
      <rect x="445" y="273" width="10" height="2"/>
      <rect x="445" y="283" width="10" height="2"/>
    </g>
    <use href="#spoke" transform="rotate(15,450,300)"/>
    <use href="#spoke" transform="rotate(30,450,300)"/>
    <use href="#spoke" transform="rotate(45,450,300)"/>
    <use href="#spoke" transform="rotate(60,450,300)"/>
    <use href="#spoke" transform="rotate(75,450,300)"/>
    <use href="#spoke" transform="rotate(90,450,300)"/>
    <use href="#spoke" transform="rotate(105,450,300)"/>
    <use href="#spoke" transform="rotate(120,450,300)"/>
    <use href="#spoke" transform="rotate(135,450,300)"/>
    <use href="#spoke" transform="rotate(150,450,300)"/>
    <use href="#spoke" transform="rotate(165,450,300)"/>
    <use href="#spoke" transform="rotate(180,450,300)"/>
    <use href="#spoke" transform="rotate(195,450,300)"/>
    <use href="#spoke" transform="rotate(210,450,300)"/>
    <use href="#spoke" transform="rotate(225,450,300)"/>
    <use href="#spoke" transform="rotate(240,450,300)"/>
    <use href="#spoke" transform="rotate(255,450,300)"/>
    <use href="#spoke" transform="rotate(270,450,300)"/>
    <use href="#spoke" transform="rotate(285,450,300)"/>
    <use href="#spoke" transform="rotate(300,450,300)"/>
    <use href="#spoke" transform="rotate(315,450,300)"/>
    <use href="#spoke" transform="rotate(330,450,300)"/>
    <use href="#spoke" transform="rotate(345,450,300)"/>
  </g>
</svg> 