<svg xmlns="http://www.w3.org/2000/svg" viewBox="0 0 1235 650">
  <defs>
    <clipPath id="a"><path d="M0 0h1235v650H0z"/></clipPath>
  </defs>
  <g clip-path="url(#a)">
    <path fill="#fff" d="M0 0h1235v650H0z"/>
    <path fill="#bf0a30" d="M0 50h1235M0 150h1235M0 250h1235M0 350h1235M0 450h1235M0 550h1235" stroke="#bf0a30" stroke-width="50"/>
    <path fill="#002868" d="M0 0h494v350H0z"/>
    <g fill="#fff">
      <path d="m41.2 35 12.7 39h40.9l-33.1 24 12.7 39-33.1-24-33.1 24 12.7-39-33.1-24h40.9zm82.4 0 12.7 39h40.9l-33.1 24 12.7 39-33.1-24-33.1 24 12.7-39-33.1-24h40.9zm82.4 0 12.7 39h40.9l-33.1 24 12.7 39-33.1-24-33.1 24 12.7-39-33.1-24h40.9zm82.4 0 12.7 39h40.9l-33.1 24 12.7 39-33.1-24-33.1 24 12.7-39-33.1-24h40.9zm82.4 0 12.7 39h40.9l-33.1 24 12.7 39-33.1-24-33.1 24 12.7-39-33.1-24h40.9zm82.4 0 12.7 39h40.9l-33.1 24 12.7 39-33.1-24-33.1 24 12.7-39-33.1-24h40.9z"/>
      <path d="m41.2 105 12.7 39h40.9l-33.1 24 12.7 39-33.1-24-33.1 24 12.7-39-33.1-24h40.9zm82.4 0 12.7 39h40.9l-33.1 24 12.7 39-33.1-24-33.1 24 12.7-39-33.1-24h40.9zm82.4 0 12.7 39h40.9l-33.1 24 12.7 39-33.1-24-33.1 24 12.7-39-33.1-24h40.9zm82.4 0 12.7 39h40.9l-33.1 24 12.7 39-33.1-24-33.1 24 12.7-39-33.1-24h40.9zm82.4 0 12.7 39h40.9l-33.1 24 12.7 39-33.1-24-33.1 24 12.7-39-33.1-24h40.9z"/>
      <path d="m82.4 175 12.7 39H136l-33.1 24 12.7 39-33.1-24-33.1 24 12.7-39-33.1-24h40.9zm82.4 0 12.7 39h40.9l-33.1 24 12.7 39-33.1-24-33.1 24 12.7-39-33.1-24h40.9zm82.4 0 12.7 39h40.9l-33.1 24 12.7 39-33.1-24-33.1 24 12.7-39-33.1-24h40.9zm82.4 0 12.7 39h40.9l-33.1 24 12.7 39-33.1-24-33.1 24 12.7-39-33.1-24h40.9zm82.4 0 12.7 39h40.9l-33.1 24 12.7 39-33.1-24-33.1 24 12.7-39-33.1-24h40.9z"/>
      <path d="m41.2 245 12.7 39h40.9l-33.1 24 12.7 39-33.1-24-33.1 24 12.7-39-33.1-24h40.9zm82.4 0 12.7 39h40.9l-33.1 24 12.7 39-33.1-24-33.1 24 12.7-39-33.1-24h40.9zm82.4 0 12.7 39h40.9l-33.1 24 12.7 39-33.1-24-33.1 24 12.7-39-33.1-24h40.9zm82.4 0 12.7 39h40.9l-33.1 24 12.7 39-33.1-24-33.1 24 12.7-39-33.1-24h40.9zm82.4 0 12.7 39h40.9l-33.1 24 12.7 39-33.1-24-33.1 24 12.7-39-33.1-24h40.9z"/>
    </g>
  </g>
</svg> 